<svg width="27" height="35" viewBox="0 0 27 35" fill="none" xmlns="http://www.w3.org/2000/svg">
    <path d="M13.5 26.3314C14.3951 26.3314 15.2535 25.9847 15.8865 25.3674C16.5194 24.7501 16.875 23.9129 16.875 23.04C16.875 22.1671 16.5194 21.3299 15.8865 20.7126C15.2535 20.0953 14.3951 19.7486 13.5 19.7486C12.6049 19.7486 11.7465 20.0953 11.1135 20.7126C10.4806 21.3299 10.125 22.1671 10.125 23.04C10.125 23.9129 10.4806 24.7501 11.1135 25.3674C11.7465 25.9847 12.6049 26.3314 13.5 26.3314ZM23.625 11.52C24.5201 11.52 25.3785 11.8668 26.0115 12.484C26.6444 13.1013 27 13.9385 27 14.8114V31.2686C27 32.1415 26.6444 32.9787 26.0115 33.596C25.3785 34.2132 24.5201 34.56 23.625 34.56H3.375C2.47989 34.56 1.62145 34.2132 0.988514 33.596C0.355579 32.9787 0 32.1415 0 31.2686V14.8114C0 13.9385 0.355579 13.1013 0.988514 12.484C1.62145 11.8668 2.47989 11.52 3.375 11.52H5.0625V8.22857C5.0625 6.04622 5.95145 3.95325 7.53379 2.41009C9.11613 0.866936 11.2622 0 13.5 0C14.608 0 15.7052 0.212838 16.7289 0.626363C17.7526 1.03989 18.6827 1.646 19.4662 2.41009C20.2497 3.17419 20.8712 4.0813 21.2952 5.07963C21.7193 6.07797 21.9375 7.14798 21.9375 8.22857V11.52H23.625ZM13.5 3.29143C12.1573 3.29143 10.8697 3.81159 9.92027 4.73748C8.97087 5.66338 8.4375 6.91916 8.4375 8.22857V11.52H18.5625V8.22857C18.5625 6.91916 18.0291 5.66338 17.0797 4.73748C16.1303 3.81159 14.8427 3.29143 13.5 3.29143Z" fill="white"/>
</svg>
