<svg width="27" height="21" viewBox="0 0 27 21" fill="none" xmlns="http://www.w3.org/2000/svg">
    <path d="M3 0C1.34531 0 0 1.34531 0 3V18C0 19.6547 1.34531 21 3 21H24C25.6547 21 27 19.6547 27 18V3C27 1.34531 25.6547 0 24 0H3ZM6.75 12H9.75C11.8219 12 13.5 13.6781 13.5 15.75C13.5 16.1625 13.1625 16.5 12.75 16.5H3.75C3.3375 16.5 3 16.1625 3 15.75C3 13.6781 4.67812 12 6.75 12ZM5.25 7.5C5.25 6.70435 5.56607 5.94129 6.12868 5.37868C6.69129 4.81607 7.45435 4.5 8.25 4.5C9.04565 4.5 9.80871 4.81607 10.3713 5.37868C10.9339 5.94129 11.25 6.70435 11.25 7.5C11.25 8.29565 10.9339 9.05871 10.3713 9.62132C9.80871 10.1839 9.04565 10.5 8.25 10.5C7.45435 10.5 6.69129 10.1839 6.12868 9.62132C5.56607 9.05871 5.25 8.29565 5.25 7.5ZM17.25 6H23.25C23.6625 6 24 6.3375 24 6.75C24 7.1625 23.6625 7.5 23.25 7.5H17.25C16.8375 7.5 16.5 7.1625 16.5 6.75C16.5 6.3375 16.8375 6 17.25 6ZM17.25 9H23.25C23.6625 9 24 9.3375 24 9.75C24 10.1625 23.6625 10.5 23.25 10.5H17.25C16.8375 10.5 16.5 10.1625 16.5 9.75C16.5 9.3375 16.8375 9 17.25 9ZM17.25 12H23.25C23.6625 12 24 12.3375 24 12.75C24 13.1625 23.6625 13.5 23.25 13.5H17.25C16.8375 13.5 16.5 13.1625 16.5 12.75C16.5 12.3375 16.8375 12 17.25 12Z" fill="white"/>
</svg>
