<svg width="25" height="24" viewBox="0 0 25 24" fill="none" xmlns="http://www.w3.org/2000/svg">
    <path d="M12.6567 3.31041V12.0001C12.6567 12.199 12.5788 12.3898 12.4403 12.5304C12.3017 12.6711 12.1138 12.7501 11.9179 12.7501C11.7219 12.7501 11.534 12.6711 11.3955 12.5304C11.2569 12.3898 11.1791 12.199 11.1791 12.0001V3.31041L9.48535 5.03073C9.34672 5.17146 9.1587 5.25052 8.96265 5.25052C8.76659 5.25052 8.57857 5.17146 8.43994 5.03073C8.30131 4.89 8.22343 4.69912 8.22343 4.5001C8.22343 4.30108 8.30131 4.11021 8.43994 3.96948L11.3952 0.969477C11.4638 0.899744 11.5453 0.844425 11.635 0.806682C11.7246 0.768939 11.8208 0.749512 11.9179 0.749512C12.015 0.749512 12.1111 0.768939 12.2008 0.806682C12.2905 0.844425 12.372 0.899744 12.4406 0.969477L15.3958 3.96948C15.5344 4.11021 15.6123 4.30108 15.6123 4.5001C15.6123 4.69912 15.5344 4.89 15.3958 5.03073C15.2572 5.17146 15.0691 5.25052 14.8731 5.25052C14.677 5.25052 14.489 5.17146 14.3504 5.03073L12.6567 3.31041ZM18.5671 11.5895V9.0001C18.5671 8.60228 18.4114 8.22075 18.1343 7.93944C17.8572 7.65814 17.4814 7.5001 17.0895 7.5001H15.6119C15.416 7.5001 15.228 7.57912 15.0895 7.71977C14.9509 7.86042 14.8731 8.05119 14.8731 8.2501C14.8731 8.44901 14.9509 8.63978 15.0895 8.78043C15.228 8.92108 15.416 9.0001 15.6119 9.0001H17.0895V16.5376C16.6489 16.0807 16.0592 15.8027 15.4311 15.7559C14.8029 15.7091 14.1795 15.8966 13.6779 16.2833C13.1763 16.6699 12.831 17.2291 12.7067 17.8559C12.5824 18.4828 12.6878 19.1341 13.003 19.6876L13.0252 19.7232L15.0809 22.9107C15.1882 23.0772 15.3562 23.1936 15.548 23.2343C15.7398 23.275 15.9397 23.2367 16.1037 23.1278C16.2676 23.0189 16.3823 22.8483 16.4224 22.6536C16.4625 22.4588 16.4247 22.2559 16.3175 22.0895L14.2737 18.9217C14.1289 18.662 14.0915 18.3545 14.17 18.0668C14.2485 17.7792 14.4363 17.535 14.6921 17.3879C14.9479 17.2408 15.2508 17.203 15.5342 17.2826C15.8175 17.3623 16.0581 17.5529 16.2029 17.8126C16.2094 17.8248 16.2168 17.837 16.2242 17.8482L17.2105 19.3773C17.2977 19.5123 17.4254 19.6151 17.5748 19.6705C17.7241 19.7259 17.8871 19.7309 18.0394 19.6848C18.1918 19.6386 18.3254 19.5439 18.4205 19.4145C18.5156 19.2851 18.567 19.1281 18.5671 18.9667V13.5001C19.2635 14.1545 19.8197 14.9474 20.201 15.8295C20.5823 16.7116 20.7806 17.664 20.7835 18.6273V22.5001C20.7835 22.699 20.8614 22.8898 20.9999 23.0304C21.1385 23.1711 21.3264 23.2501 21.5223 23.2501C21.7183 23.2501 21.9062 23.1711 22.0448 23.0304C22.1833 22.8898 22.2612 22.699 22.2612 22.5001V18.6235C22.257 17.2342 21.9182 15.867 21.2743 14.641C20.6305 13.415 19.7011 12.3674 18.5671 11.5895ZM8.22384 7.5001H6.74623C6.35434 7.5001 5.9785 7.65814 5.7014 7.93944C5.42429 8.22075 5.26862 8.60228 5.26862 9.0001V18.7501C5.26862 18.949 5.34645 19.1398 5.48501 19.2804C5.62356 19.4211 5.81148 19.5001 6.00742 19.5001C6.20337 19.5001 6.39128 19.4211 6.52984 19.2804C6.66839 19.1398 6.74623 18.949 6.74623 18.7501V9.0001H8.22384C8.41978 9.0001 8.6077 8.92108 8.74625 8.78043C8.88481 8.63978 8.96265 8.44901 8.96265 8.2501C8.96265 8.05119 8.88481 7.86042 8.74625 7.71977C8.6077 7.57912 8.41978 7.5001 8.22384 7.5001Z" fill="white"/>
</svg>
