<svg width="27" height="27" viewBox="0 0 27 27" fill="none" xmlns="http://www.w3.org/2000/svg">
    <path d="M1.5 19.5C1.8674 19.5 2.22201 19.6349 2.49656 19.8791C2.77111 20.1232 2.94651 20.4596 2.9895 20.8245L3 21V24H6C6.38232 24.0004 6.75005 24.1468 7.02805 24.4093C7.30606 24.6717 7.47335 25.0304 7.49576 25.4121C7.51816 25.7938 7.39399 26.1696 7.1486 26.4627C6.90322 26.7559 6.55514 26.9443 6.1755 26.9895L6 27H3C2.24314 27.0002 1.51415 26.7144 0.959178 26.1998C0.404206 25.6851 0.064265 24.9797 0.00750017 24.225L0 24V21C0 20.6022 0.158035 20.2206 0.43934 19.9393C0.720644 19.658 1.10218 19.5 1.5 19.5ZM25.5 19.5C25.8978 19.5 26.2794 19.658 26.5607 19.9393C26.842 20.2206 27 20.6022 27 21V24C27 24.7956 26.6839 25.5587 26.1213 26.1213C25.5587 26.6839 24.7956 27 24 27H21C20.6022 27 20.2206 26.842 19.9393 26.5607C19.658 26.2794 19.5 25.8978 19.5 25.5C19.5 25.1022 19.658 24.7206 19.9393 24.4393C20.2206 24.158 20.6022 24 21 24H24V21C24 20.6022 24.158 20.2206 24.4393 19.9393C24.7206 19.658 25.1022 19.5 25.5 19.5ZM17.7 16.2855C17.8399 16.1443 18.0066 16.0324 18.1901 15.9561C18.3737 15.8799 18.5707 15.841 18.7694 15.8415C18.9682 15.8421 19.1649 15.8821 19.3481 15.9593C19.5313 16.0366 19.6972 16.1494 19.8364 16.2914C19.9756 16.4333 20.0851 16.6015 20.1587 16.7862C20.2323 16.9709 20.2685 17.1683 20.2651 17.3671C20.2617 17.5658 20.2188 17.7619 20.139 17.944C20.0592 18.126 19.9439 18.2904 19.8 18.4275C18.1194 20.0792 15.8564 21.0033 13.5 21C11.1436 21.0033 8.88059 20.0792 7.2 18.4275C7.05608 18.2904 6.94085 18.126 6.86101 17.944C6.78117 17.7619 6.73831 17.5658 6.73492 17.3671C6.73153 17.1683 6.76768 16.9709 6.84128 16.7862C6.91487 16.6015 7.02443 16.4333 7.16359 16.2914C7.30276 16.1494 7.46875 16.0366 7.65192 15.9593C7.83508 15.8821 8.03178 15.8421 8.23056 15.8415C8.42935 15.841 8.62626 15.8799 8.80985 15.9561C8.99344 16.0324 9.16005 16.1443 9.3 16.2855C10.4199 17.3874 11.9289 18.0034 13.5 18C15.135 18 16.6155 17.3475 17.7 16.2855ZM8.25 7.5C8.84674 7.5 9.41903 7.73705 9.84099 8.15901C10.2629 8.58097 10.5 9.15326 10.5 9.75C10.5 10.3467 10.2629 10.919 9.84099 11.341C9.41903 11.7629 8.84674 12 8.25 12C7.65326 12 7.08097 11.7629 6.65901 11.341C6.23705 10.919 6 10.3467 6 9.75C6 9.15326 6.23705 8.58097 6.65901 8.15901C7.08097 7.73705 7.65326 7.5 8.25 7.5ZM18.75 7.5C19.3467 7.5 19.919 7.73705 20.341 8.15901C20.7629 8.58097 21 9.15326 21 9.75C21 10.3467 20.7629 10.919 20.341 11.341C19.919 11.7629 19.3467 12 18.75 12C18.1533 12 17.581 11.7629 17.159 11.341C16.7371 10.919 16.5 10.3467 16.5 9.75C16.5 9.15326 16.7371 8.58097 17.159 8.15901C17.581 7.73705 18.1533 7.5 18.75 7.5ZM6 0C6.39782 0 6.77936 0.158035 7.06066 0.43934C7.34196 0.720644 7.5 1.10218 7.5 1.5C7.5 1.89782 7.34196 2.27936 7.06066 2.56066C6.77936 2.84196 6.39782 3 6 3H3V6C3 6.39782 2.84196 6.77936 2.56066 7.06066C2.27936 7.34196 1.89782 7.5 1.5 7.5C1.10218 7.5 0.720644 7.34196 0.43934 7.06066C0.158035 6.77936 0 6.39782 0 6V3C0 2.20435 0.31607 1.44129 0.87868 0.87868C1.44129 0.31607 2.20435 0 3 0H6ZM24 0C24.7956 0 25.5587 0.31607 26.1213 0.87868C26.6839 1.44129 27 2.20435 27 3V6C27 6.39782 26.842 6.77936 26.5607 7.06066C26.2794 7.34196 25.8978 7.5 25.5 7.5C25.1022 7.5 24.7206 7.34196 24.4393 7.06066C24.158 6.77936 24 6.39782 24 6V3H21C20.6022 3 20.2206 2.84196 19.9393 2.56066C19.658 2.27936 19.5 1.89782 19.5 1.5C19.5 1.10218 19.658 0.720644 19.9393 0.43934C20.2206 0.158035 20.6022 0 21 0H24Z" fill="white"/>
</svg>
