<svg width="30" height="30" viewBox="0 0 30 30" fill="none" xmlns="http://www.w3.org/2000/svg">
    <path d="M28.2 15.3125C28.2 14.3375 28.1125 13.4 27.95 12.5H15V17.8187H22.4C22.0813 19.5375 21.1125 20.9938 19.6563 21.9688V25.4187H24.1C26.7 23.025 28.2 19.5 28.2 15.3125Z" fill="#4285F4"/>
    <path d="M15 28.7498C18.7125 28.7498 21.825 27.5186 24.1 25.4186L19.6563 21.9686C18.425 22.7936 16.85 23.2811 15 23.2811C11.4188 23.2811 8.38752 20.8623 7.30627 17.6123H2.71252V21.1748C4.97502 25.6686 9.62502 28.7498 15 28.7498Z" fill="#34A853"/>
    <path d="M7.30625 17.6127C7.03125 16.7877 6.875 15.9064 6.875 15.0002C6.875 14.0939 7.03125 13.2127 7.30625 12.3877V8.8252H2.7125C1.75 10.7413 1.24915 12.856 1.25 15.0002C1.25 17.2189 1.78125 19.3189 2.7125 21.1752L7.30625 17.6127Z" fill="#FBBC05"/>
    <path d="M15 6.71875C17.0188 6.71875 18.8313 7.4125 20.2563 8.775L24.2 4.83125C21.8188 2.6125 18.7063 1.25 15 1.25C9.62502 1.25 4.97502 4.33125 2.71252 8.825L7.30627 12.3875C8.38752 9.1375 11.4188 6.71875 15 6.71875Z" fill="#EA4335"/>
</svg>
