<svg width="19" height="17" viewBox="0 0 19 17" fill="none" xmlns="http://www.w3.org/2000/svg">
    <path d="M6.67217 0C2.99092 0 0.984833 3.41392 0.984833 5.75817C0.984833 7.64574 2.7265 8.47268 4.34942 8.47268L4.34467 8.46775C7.7045 8.46775 10.032 5.29656 10.032 2.70958C10.032 0.825299 8.31013 0 6.67217 0ZM15.6402 0C11.9589 0 9.95283 3.41392 9.95283 5.75817C9.95283 7.64574 11.6945 8.47268 13.3174 8.47268L13.3127 8.46775C16.6733 8.46693 19 5.29656 19 2.70958C19 0.825299 17.2742 0 15.6402 0ZM11.2195 10.5734L13.1472 12.0824C11.4293 13.7857 8.29904 14.9829 5.74275 14.6908C4.55802 14.5515 3.42658 14.1024 2.45415 13.3854C1.48172 12.6684 0.700018 11.7068 0.182083 10.5907H0C0.319858 12.3091 1.17979 13.8685 2.44476 15.0239C3.70973 16.1793 5.30808 16.8653 6.98883 16.9742C10.0083 17.1716 12.7862 16.2295 14.8635 14.3987L14.8604 14.4045L15.7154 16.8631L16.9464 10.5907L11.2195 10.5734Z" fill="#FF0000"/>
</svg>
