<svg width="24" height="24" viewBox="0 0 24 24" fill="none" xmlns="http://www.w3.org/2000/svg">
    <path d="M2.75 17.4749L6.32 14.5149L8.705 16.5199L13.255 12.2249L16.12 14.4799L21.25 10.0249" stroke="white" stroke-width="2" stroke-linecap="round" stroke-linejoin="round"/>
    <path d="M20.25 21.25H3.75C3.48478 21.25 3.23043 21.1446 3.04289 20.9571C2.85536 20.7696 2.75 20.5152 2.75 20.25V3.75C2.75 3.48478 2.85536 3.23043 3.04289 3.04289C3.23043 2.85536 3.48478 2.75 3.75 2.75H20.25C20.5152 2.75 20.7696 2.85536 20.9571 3.04289C21.1446 3.23043 21.25 3.48478 21.25 3.75V20.25C21.25 20.5152 21.1446 20.7696 20.9571 20.9571C20.7696 21.1446 20.5152 21.25 20.25 21.25Z" stroke="white" stroke-width="2" stroke-linecap="round" stroke-linejoin="round"/>
</svg>
