<svg width="26" height="26" viewBox="0 0 26 26" fill="none" xmlns="http://www.w3.org/2000/svg">
    <path d="M13 25.0435C16.1826 25.0435 19.2348 23.7769 21.4853 21.5224C23.7357 19.2679 25 16.2101 25 13.0217C25 9.83338 23.7357 6.7756 21.4853 4.52109C19.2348 2.26657 16.1826 1 13 1C9.8174 1 6.76515 2.26657 4.51472 4.52109C2.26428 6.7756 1 9.83338 1 13.0217C1 16.2101 2.26428 19.2679 4.51472 21.5224C6.76515 23.7769 9.8174 25.0435 13 25.0435Z" stroke="white" stroke-width="1.5" stroke-linecap="round" stroke-linejoin="round"/>
    <path d="M9.21045 16.1006C9.29104 17.0319 9.73317 17.8943 10.4418 18.5025C11.1504 19.1107 12.069 19.416 12.9999 19.3528C16.0568 19.3528 16.7894 17.5938 16.7894 16.1006C16.7894 14.6074 15.5262 13.0256 12.9999 13.0256C10.4736 13.0256 9.21045 12.0259 9.21045 9.98851C9.23401 9.51981 9.35195 9.06072 9.55719 8.63886C9.76243 8.21701 10.0507 7.84109 10.4047 7.53373C10.7587 7.22638 11.1711 6.99393 11.6171 6.85036C12.0631 6.7068 12.5335 6.6551 12.9999 6.69835C13.9315 6.65817 14.8431 6.97664 15.5478 7.58845C16.2524 8.20025 16.6967 9.05899 16.7894 9.98851M12.9999 21.2472V19.6021M12.9999 4.79639V6.69329" stroke="white" stroke-width="1.5" stroke-linecap="round" stroke-linejoin="round"/>
</svg>
