<svg width="38" height="36" viewBox="0 0 38 36" fill="none" xmlns="http://www.w3.org/2000/svg">
    <path d="M31.6005 15.483L20.0549 4.23295C19.8673 4.05012 19.6445 3.90508 19.3994 3.80613C19.1542 3.70718 18.8915 3.65625 18.6261 3.65625C18.3608 3.65625 18.098 3.70718 17.8529 3.80613C17.6077 3.90508 17.385 4.05012 17.1974 4.23295L5.65178 15.483C5.46365 15.6654 5.31449 15.8824 5.21293 16.1213C5.11137 16.3603 5.05941 16.6165 5.06006 16.8751V30.3751C5.06006 30.5989 5.15129 30.8135 5.31369 30.9718C5.47608 31.13 5.69633 31.2189 5.92598 31.2189H15.1624C15.3921 31.2189 15.6124 31.13 15.7747 30.9718C15.9371 30.8135 16.0284 30.5989 16.0284 30.3751V22.2189H21.2239V30.3751C21.2239 30.5989 21.3151 30.8135 21.4775 30.9718C21.6399 31.13 21.8601 31.2189 22.0898 31.2189H31.3263C31.5559 31.2189 31.7762 31.13 31.9386 30.9718C32.101 30.8135 32.1922 30.5989 32.1922 30.3751V16.8751C32.1928 16.6165 32.1409 16.3603 32.0393 16.1213C31.9378 15.8824 31.7886 15.6654 31.6005 15.483ZM30.4603 29.5314H22.9557V21.3751C22.9557 21.1514 22.8645 20.9368 22.7021 20.7785C22.5397 20.6203 22.3195 20.5314 22.0898 20.5314H15.1624C14.9328 20.5314 14.7125 20.6203 14.5502 20.7785C14.3878 20.9368 14.2965 21.1514 14.2965 21.3751V29.5314H6.7919V16.8751C6.79168 16.8381 6.79896 16.8014 6.81333 16.7672C6.82769 16.7329 6.84886 16.7017 6.87561 16.6755L18.4212 5.42545C18.448 5.39909 18.4799 5.37817 18.5151 5.36389C18.5503 5.34961 18.588 5.34226 18.6261 5.34226C18.6642 5.34226 18.702 5.34961 18.7371 5.36389C18.7723 5.37817 18.8042 5.39909 18.8311 5.42545L30.3766 16.6755C30.4034 16.7017 30.4246 16.7329 30.4389 16.7672C30.4533 16.8014 30.4606 16.8381 30.4603 16.8751V29.5314Z" fill="white"/>
</svg>
