<svg width="38" height="36" viewBox="0 0 38 36" fill="none" xmlns="http://www.w3.org/2000/svg">
    <g clip-path="url(#clip0_79_179)">
        <path d="M30.859 20.9998C31.2513 21.0002 31.6287 21.1466 31.914 21.4091C32.1993 21.6715 32.371 22.0302 32.394 22.4119C32.417 22.7935 32.2896 23.1694 32.0377 23.4625C31.7859 23.7557 31.4287 23.9441 31.0391 23.9893L30.859 23.9998H9.94452L13.4744 27.4393C13.7505 27.7092 13.9108 28.0714 13.9227 28.4524C13.9346 28.8333 13.7973 29.2044 13.5387 29.4902C13.28 29.7761 12.9194 29.9552 12.53 29.9914C12.1406 30.0275 11.7518 29.9179 11.4424 29.6848L11.2977 29.5603L5.40172 23.8153C4.37801 22.8193 5.0338 21.1408 6.42235 21.0088L6.59938 20.9998H30.859ZM23.6129 6.43929C23.878 6.18103 24.2307 6.02588 24.6048 6.00296C24.9789 5.98004 25.3488 6.09092 25.645 6.31479L25.7897 6.43929L31.6856 12.1843C32.7093 13.1803 32.0535 14.8588 30.665 14.9908L30.488 14.9998H6.22838C5.83601 14.9994 5.45862 14.853 5.17332 14.5905C4.88801 14.3281 4.71632 13.9694 4.69332 13.5877C4.67033 13.206 4.79777 12.8302 5.0496 12.537C5.30143 12.2439 5.65865 12.0554 6.04827 12.0103L6.22838 11.9998H27.1428L23.6129 8.56029C23.3244 8.279 23.1622 7.89754 23.1622 7.49979C23.1622 7.10205 23.3244 6.72058 23.6129 6.43929Z" fill="white"/>
    </g>
    <defs>
        <clipPath id="clip0_79_179">
            <rect width="36.9459" height="36" fill="white" transform="translate(0.0708008)"/>
        </clipPath>
    </defs>
</svg>
