<svg width="24" height="24" viewBox="0 0 24 24" fill="none" xmlns="http://www.w3.org/2000/svg">
    <g clip-path="url(#clip0_6_380)">
        <path d="M23.2709 9.41879C21.7199 6.89279 18.1919 2.65479 11.9999 2.65479C5.80787 2.65479 2.27987 6.89279 0.728868 9.41879C0.249396 10.1943 -0.00457764 11.088 -0.00457764 11.9998C-0.00457764 12.9115 0.249396 13.8053 0.728868 14.5808C2.27987 17.1068 5.80787 21.3448 11.9999 21.3448C18.1919 21.3448 21.7199 17.1068 23.2709 14.5808C23.7503 13.8053 24.0043 12.9115 24.0043 11.9998C24.0043 11.088 23.7503 10.1943 23.2709 9.41879ZM21.5659 13.5338C20.2339 15.6998 17.2189 19.3448 11.9999 19.3448C6.78087 19.3448 3.76587 15.6998 2.43387 13.5338C2.149 13.0728 1.99812 12.5417 1.99812 11.9998C1.99812 11.4579 2.149 10.9267 2.43387 10.4658C3.76587 8.29979 6.78087 4.65479 11.9999 4.65479C17.2189 4.65479 20.2339 8.29578 21.5659 10.4658C21.8507 10.9267 22.0016 11.4579 22.0016 11.9998C22.0016 12.5417 21.8507 13.0728 21.5659 13.5338Z" fill="black"/>
        <path d="M11.9998 7C11.0109 7 10.0442 7.29324 9.22197 7.84265C8.39972 8.39206 7.75886 9.17295 7.38042 10.0866C7.00198 11.0002 6.90297 12.0055 7.09589 12.9755C7.28882 13.9454 7.76502 14.8363 8.46429 15.5355C9.16355 16.2348 10.0545 16.711 11.0244 16.9039C11.9943 17.0969 12.9996 16.9978 13.9132 16.6194C14.8269 16.241 15.6078 15.6001 16.1572 14.7779C16.7066 13.9556 16.9998 12.9889 16.9998 12C16.9982 10.6744 16.4709 9.40356 15.5336 8.46622C14.5963 7.52888 13.3254 7.00159 11.9998 7ZM11.9998 15C11.4065 15 10.8265 14.8241 10.3331 14.4944C9.83976 14.1648 9.45524 13.6962 9.22818 13.1481C9.00112 12.5999 8.94171 11.9967 9.05746 11.4147C9.17322 10.8328 9.45894 10.2982 9.8785 9.87868C10.2981 9.45912 10.8326 9.1734 11.4145 9.05764C11.9965 8.94189 12.5997 9.0013 13.1479 9.22836C13.696 9.45542 14.1646 9.83994 14.4942 10.3333C14.8239 10.8266 14.9998 11.4067 14.9998 12C14.9998 12.7957 14.6837 13.5587 14.1211 14.1213C13.5585 14.6839 12.7955 15 11.9998 15Z" fill="black"/>
    </g>
    <defs>
        <clipPath id="clip0_6_380">
            <rect width="24" height="24" rx="2" fill="white"/>
        </clipPath>
    </defs>
</svg>
