<svg width="24" height="24" viewBox="0 0 24 24" fill="none" xmlns="http://www.w3.org/2000/svg">
    <path d="M21.0255 12.9675C21.123 13.29 21.423 13.5 21.7455 13.5V13.4925C21.8623 13.4936 21.9777 13.4672 22.0825 13.4155C22.1872 13.3637 22.2783 13.2881 22.3484 13.1946C22.4184 13.1012 22.4656 12.9926 22.4859 12.8775C22.5063 12.7625 22.4993 12.6443 22.4655 12.5325C22.4423 12.4575 19.9598 4.5 11.9963 4.5C4.03277 4.5 1.55252 12.4575 1.53002 12.54C1.41002 12.9375 1.63502 13.35 2.03252 13.47C2.43002 13.59 2.85002 13.365 2.97002 12.9675C3.05177 12.6825 5.16677 6 11.997 6C18.8258 6 20.9333 12.6773 21.0255 12.9675ZM9.00002 13.5C9.00002 12.7044 9.31609 11.9413 9.8787 11.3787C10.4413 10.8161 11.2044 10.5 12 10.5C12.7957 10.5 13.5587 10.8161 14.1213 11.3787C14.6839 11.9413 15 12.7044 15 13.5C15 14.2956 14.6839 15.0587 14.1213 15.6213C13.5587 16.1839 12.7957 16.5 12 16.5C11.2044 16.5 10.4413 16.1839 9.8787 15.6213C9.31609 15.0587 9.00002 14.2956 9.00002 13.5ZM12 9C10.8065 9 9.66195 9.47411 8.81804 10.318C7.97412 11.1619 7.50002 12.3065 7.50002 13.5C7.50002 14.6935 7.97412 15.8381 8.81804 16.682C9.66195 17.5259 10.8065 18 12 18C13.1935 18 14.3381 17.5259 15.182 16.682C16.0259 15.8381 16.5 14.6935 16.5 13.5C16.5 12.3065 16.0259 11.1619 15.182 10.318C14.3381 9.47411 13.1935 9 12 9Z" fill="white"/>
</svg>
