<svg width="25" height="25" viewBox="0 0 25 25" fill="none" xmlns="http://www.w3.org/2000/svg">
    <path d="M0 11.1111H11.1049V0H0V11.1111ZM2.77624 2.77778H8.32871V8.33333H2.77624V2.77778ZM0 25H11.1049V13.8889H0V25ZM2.77624 16.6667H8.32871V22.2222H2.77624V16.6667ZM13.8812 0V11.1111H24.9861V0H13.8812ZM22.2099 8.33333H16.6574V2.77778H22.2099V8.33333ZM13.8951 13.8889H16.6713V16.6667H13.8951V13.8889ZM16.6713 16.6667H19.4475V19.4444H16.6713V16.6667ZM13.8951 19.4444H16.6713V22.2222H13.8951V19.4444ZM19.4475 19.4444H22.2238V22.2222H19.4475V19.4444ZM22.2238 22.2222H25V25H22.2238V22.2222ZM16.6713 22.2222H19.4475V25H16.6713V22.2222ZM19.4475 13.8889H22.2238V16.6667H19.4475V13.8889ZM22.2238 16.6667H25V19.4444H22.2238V16.6667Z" fill="white"/>
</svg>
