<svg width="18" height="18" viewBox="0 0 18 18" fill="none" xmlns="http://www.w3.org/2000/svg">
    <g clip-path="url(#clip0_5_390)">
        <path d="M17.1216 6.87857L14.2124 3.96932C14.0709 3.8327 13.8815 3.75711 13.6848 3.75882C13.4882 3.76053 13.3001 3.8394 13.161 3.97846C13.022 4.11752 12.9431 4.30562 12.9414 4.50227C12.9397 4.69892 13.0153 4.88837 13.1519 5.02982L16.0611 7.93907C16.1476 8.02722 16.2231 8.12542 16.2861 8.23157C16.2749 8.23157 16.2659 8.22557 16.2546 8.22557L4.49164 8.24957C4.29273 8.24957 4.10196 8.32859 3.96131 8.46924C3.82066 8.60989 3.74164 8.80066 3.74164 8.99957C3.74164 9.19848 3.82066 9.38925 3.96131 9.5299C4.10196 9.67055 4.29273 9.74957 4.49164 9.74957L16.2501 9.72557C16.2711 9.72557 16.2884 9.71507 16.3086 9.71357C16.2421 9.84044 16.1578 9.95713 16.0581 10.0601L13.1489 12.9693C13.0773 13.0385 13.0201 13.1213 12.9808 13.2128C12.9415 13.3043 12.9208 13.4027 12.9199 13.5023C12.9191 13.6019 12.9381 13.7006 12.9758 13.7928C13.0135 13.885 13.0692 13.9687 13.1396 14.0391C13.21 14.1095 13.2937 14.1652 13.3859 14.2029C13.4781 14.2406 13.5769 14.2596 13.6764 14.2588C13.776 14.2579 13.8744 14.2372 13.9659 14.1979C14.0574 14.1586 14.1402 14.1015 14.2094 14.0298L17.1186 11.1206C17.6811 10.558 17.997 9.79507 17.997 8.99957C17.997 8.20408 17.6811 7.44116 17.1186 6.87857H17.1216Z" fill="white"/>
        <path d="M5.25 16.5H3.75C3.15326 16.5 2.58097 16.2629 2.15901 15.841C1.73705 15.419 1.5 14.8467 1.5 14.25V3.75C1.5 3.15326 1.73705 2.58097 2.15901 2.15901C2.58097 1.73705 3.15326 1.5 3.75 1.5H5.25C5.44891 1.5 5.63968 1.42098 5.78033 1.28033C5.92098 1.13968 6 0.948912 6 0.75C6 0.551088 5.92098 0.360322 5.78033 0.21967C5.63968 0.0790176 5.44891 0 5.25 0L3.75 0C2.7558 0.00119089 1.80267 0.396661 1.09966 1.09966C0.396661 1.80267 0.00119089 2.7558 0 3.75L0 14.25C0.00119089 15.2442 0.396661 16.1973 1.09966 16.9003C1.80267 17.6033 2.7558 17.9988 3.75 18H5.25C5.44891 18 5.63968 17.921 5.78033 17.7803C5.92098 17.6397 6 17.4489 6 17.25C6 17.0511 5.92098 16.8603 5.78033 16.7197C5.63968 16.579 5.44891 16.5 5.25 16.5Z" fill="white"/>
    </g>
    <defs>
        <clipPath id="clip0_5_390">
            <rect width="18" height="18" fill="white"/>
        </clipPath>
    </defs>
</svg>
