<svg width="24" height="24" viewBox="0 0 24 24" fill="none" xmlns="http://www.w3.org/2000/svg">
    <path d="M12.25 0C12.4656 0 12.6813 0.046875 12.8781 0.135938L21.7047 3.88125C22.736 4.31719 23.5047 5.33438 23.5 6.5625C23.4766 11.2125 21.5641 19.7203 13.4875 23.5875C12.7047 23.9625 11.7953 23.9625 11.0125 23.5875C2.93596 19.7203 1.02346 11.2125 1.00002 6.5625C0.995334 5.33438 1.76408 4.31719 2.79533 3.88125L11.6266 0.135938C11.8188 0.046875 12.0344 0 12.25 0ZM12.25 3.13125V20.85C18.7188 17.7188 20.4578 10.7859 20.5 6.62813L12.25 3.13125Z" fill="white"/>
</svg>
