<svg width="22" height="22" viewBox="0 0 22 22" fill="none" xmlns="http://www.w3.org/2000/svg">
    <path d="M21.9567 6.38479C21.9491 6.38479 21.9457 6.38135 21.9429 6.38135C21.9352 6.3826 21.9278 6.38516 21.9209 6.38891C8.05269 7.78522 1.53587 13.8146 0 15.2982L0.204187 15.62H2.62762C8.92581 9.28604 17.4371 7.18366 21.9388 6.49272L21.9422 6.49616C21.945 6.49616 21.9484 6.4886 21.9526 6.4886C21.9653 6.48667 21.977 6.4803 21.9856 6.47062C21.9941 6.46095 21.999 6.44857 21.9993 6.43566C21.9993 6.41022 21.9807 6.39235 21.956 6.38547L21.9567 6.38479ZM0.347187 9.63254L0.20075 9.90822L3.17625 12.078C3.77902 11.7276 4.39427 11.3993 5.02081 11.0935L3.02637 9.63254H0.347187ZM6.96094 12.5104C6.43617 12.8965 5.92372 13.2992 5.42437 13.7177L8.03894 15.6186H10.7497L10.8646 15.3718L6.96094 12.5104Z" fill="black"/>
</svg>
