<svg width="25" height="24" viewBox="0 0 25 24" fill="none" xmlns="http://www.w3.org/2000/svg">
    <path fill-rule="evenodd" clip-rule="evenodd" d="M10.1686 3.25H14.2193C16.0298 3.25 17.4641 3.25 18.5861 3.403C19.7406 3.561 20.6755 3.893 21.4133 4.641C22.0812 5.319 22.4131 6.163 22.5855 7.191C22.7106 7.941 22.7559 8.83 22.7727 9.874C22.7856 9.95001 22.7869 10.0276 22.7766 10.104C22.7796 10.39 22.7815 10.688 22.7825 10.998C22.7831 11.1969 22.7057 11.3879 22.5675 11.5289C22.4991 11.5987 22.4178 11.6542 22.3283 11.6921C22.2387 11.7301 22.1427 11.7497 22.0457 11.75C21.8498 11.7505 21.6616 11.672 21.5227 11.5317C21.3838 11.3915 21.3054 11.2009 21.3049 11.002V10.75H3.08301C3.08104 11.138 3.08104 11.554 3.08104 12C3.08104 13.907 3.08301 15.262 3.21895 16.29C3.35193 17.295 3.60214 17.875 4.01883 18.298C4.43552 18.721 5.00686 18.975 5.99784 19.11C7.0105 19.248 8.34429 19.25 10.2228 19.25H11.7004C11.8964 19.25 12.0843 19.329 12.2229 19.4697C12.3614 19.6103 12.4392 19.8011 12.4392 20C12.4392 20.1989 12.3614 20.3897 12.2229 20.5303C12.0843 20.671 11.8964 20.75 11.7004 20.75H10.1686C8.35808 20.75 6.92381 20.75 5.80181 20.597C4.64731 20.439 3.71247 20.107 2.97465 19.359C2.23781 18.61 1.91077 17.661 1.75513 16.489C1.60441 15.349 1.60441 13.894 1.60441 12.056V11.944C1.60441 11.282 1.60441 10.67 1.61131 10.104C1.60074 10.0276 1.60174 9.95007 1.61426 9.874C1.63002 8.967 1.66647 8.184 1.75513 7.511C1.91077 6.339 2.23781 5.39 2.97465 4.641C3.71247 3.893 4.64731 3.561 5.80181 3.403C6.9248 3.25 8.35808 3.25 10.1686 3.25ZM3.10763 9.25H21.2803C21.2567 8.535 21.2113 7.944 21.1286 7.442C20.9877 6.6 20.7474 6.087 20.3681 5.702C19.9514 5.279 19.3801 5.025 18.3891 4.89C17.3774 4.752 16.0426 4.75 14.1641 4.75H10.2238C8.34528 4.75 7.01149 4.752 5.99784 4.89C5.00784 5.025 4.4365 5.279 4.01981 5.702C3.60313 6.125 3.35292 6.705 3.21993 7.711C3.16083 8.156 3.12734 8.663 3.10763 9.25ZM15.6417 13.25C15.8377 13.25 16.0256 13.329 16.1641 13.4697C16.3027 13.6103 16.3805 13.8011 16.3805 14V18.19L17.0898 17.47C17.1574 17.3963 17.239 17.3372 17.3296 17.2962C17.4202 17.2552 17.5181 17.2332 17.6173 17.2314C17.7165 17.2296 17.815 17.2482 17.907 17.2859C17.999 17.3236 18.0826 17.3797 18.1527 17.451C18.2229 17.5222 18.2782 17.607 18.3153 17.7004C18.3525 17.7938 18.3707 17.8938 18.369 17.9945C18.3672 18.0952 18.3455 18.1945 18.3052 18.2865C18.2648 18.3785 18.2066 18.4613 18.134 18.53L16.1638 20.53C16.0253 20.6705 15.8375 20.7493 15.6417 20.7493C15.4459 20.7493 15.2582 20.6705 15.1196 20.53L13.1495 18.53C13.0769 18.4613 13.0187 18.3785 12.9783 18.2865C12.9379 18.1945 12.9162 18.0952 12.9145 17.9945C12.9127 17.8938 12.931 17.7938 12.9681 17.7004C13.0053 17.607 13.0606 17.5222 13.1307 17.451C13.2009 17.3797 13.2845 17.3236 13.3764 17.2859C13.4684 17.2482 13.567 17.2296 13.6662 17.2314C13.7654 17.2332 13.8632 17.2552 13.9538 17.2962C14.0445 17.3372 14.126 17.3963 14.1937 17.47L14.9029 18.19V14C14.9029 13.8011 14.9808 13.6103 15.1193 13.4697C15.2579 13.329 15.4458 13.25 15.6417 13.25ZM19.5525 13.47C19.691 13.3295 19.8788 13.2507 20.0746 13.2507C20.2703 13.2507 20.4581 13.3295 20.5967 13.47L22.5668 15.47C22.6394 15.5387 22.6976 15.6215 22.738 15.7135C22.7784 15.8055 22.8001 15.9048 22.8018 16.0055C22.8036 16.1062 22.7853 16.2062 22.7482 16.2996C22.711 16.393 22.6557 16.4778 22.5856 16.549C22.5154 16.6203 22.4318 16.6764 22.3398 16.7141C22.2478 16.7518 22.1493 16.7704 22.0501 16.7686C21.9509 16.7668 21.8531 16.7448 21.7624 16.7038C21.6718 16.6628 21.5903 16.6037 21.5226 16.53L20.8134 15.81V20C20.8134 20.1989 20.7355 20.3897 20.597 20.5303C20.4584 20.671 20.2705 20.75 20.0746 20.75C19.8786 20.75 19.6907 20.671 19.5521 20.5303C19.4136 20.3897 19.3358 20.1989 19.3358 20V15.81L18.6265 16.53C18.5589 16.6037 18.4773 16.6628 18.3867 16.7038C18.296 16.7448 18.1982 16.7668 18.099 16.7686C17.9998 16.7704 17.9013 16.7518 17.8093 16.7141C17.7173 16.6764 17.6337 16.6203 17.5636 16.549C17.4934 16.4778 17.4381 16.393 17.4009 16.2996C17.3638 16.2062 17.3455 16.1062 17.3473 16.0055C17.349 15.9048 17.3708 15.8055 17.4111 15.7135C17.4515 15.6215 17.5097 15.5387 17.5823 15.47L19.5525 13.47ZM5.54471 16C5.54471 15.8011 5.62255 15.6103 5.7611 15.4697C5.89965 15.329 6.08757 15.25 6.28352 15.25H10.2238C10.4198 15.25 10.6077 15.329 10.7462 15.4697C10.8848 15.6103 10.9626 15.8011 10.9626 16C10.9626 16.1989 10.8848 16.3897 10.7462 16.5303C10.6077 16.671 10.4198 16.75 10.2238 16.75H6.28352C6.08757 16.75 5.89965 16.671 5.7611 16.5303C5.62255 16.3897 5.54471 16.1989 5.54471 16Z" fill="white"/>
</svg>
